# xmcd
#
# Track frame offsets: 
#        150
#        14454
#        28808
#        45554
#        63829
#        78717
#        113391
#        132809
#        151289
#        167633
#
# Disc length: 2431 seconds
#
# Revision: 0
# Processed by: cddbd v1.5.2PL0 Copyright (c) Steve Scherf et al.
# Submitted via: ExactAudioCopy v1.0b1
#
DISCID=73097d0a
DTITLE=Victor Kennedy You Yangs - Ride The Blizzard
DYEAR=2015
DGENRE=Blues
TTITLE0=Ride The Blizzard
TTITLE1=Big Rockin' Chair
TTITLE2=Code
TTITLE3=Confiscate (Where You Are)
TTITLE4=Always Crashing The Same Car
TTITLE5=The Weather
TTITLE6=Girl With The Hoe
TTITLE7=Dad
TTITLE8=Half Life
TTITLE9=Bend Y'self
EXTD=
EXTT0=
EXTT1=
EXTT2=
EXTT3=
EXTT4=
EXTT5=
EXTT6=
EXTT7=
EXTT8=
EXTT9=
PLAYORDER=
